#define datei_width 16
#define datei_height 16
static char datei_bits[] = {
   0x00, 0x00, 0xc0, 0x1f, 0x40, 0x10, 0xf8, 0x17, 0x08, 0x12, 0xff, 0x16,
   0x41, 0x12, 0xdd, 0x16, 0x41, 0x12, 0xdd, 0x16, 0x41, 0x12, 0xdd, 0x1e,
   0x41, 0x02, 0xdd, 0x03, 0x41, 0x00, 0x7f, 0x00};
