#define ordner_width 16
#define ordner_height 16
static char ordner_bits[] = {
   0x00, 0x00, 0x00, 0x00, 0x00, 0x00, 0x3f, 0x00, 0x21, 0x00, 0x7f, 0xff,
   0x40, 0x01, 0x5f, 0xfd, 0x40, 0x01, 0x5f, 0xcd, 0x40, 0x01, 0x5f, 0x3d,
   0x40, 0x01, 0x47, 0xfd, 0x40, 0x01, 0x7f, 0xff};
